<svg width="20" height="21" viewBox="0 0 20 21" fill="none" xmlns="http://www.w3.org/2000/svg">
<path d="M14.6004 13C14.4004 12.9 13.1004 12.3 12.9004 12.2C12.7004 12.1 12.5004 12.1 12.3004 12.3C12.1004 12.5 11.7004 13.1 11.5004 13.3C11.4004 13.5 11.2004 13.5 11.0004 13.4C10.3004 13.1 9.60039 12.7 9.00039 12.2C8.50039 11.7 8.00039 11.1 7.60039 10.5C7.50039 10.3 7.60039 10.1 7.70039 10C7.80039 9.90004 7.90039 9.70004 8.10039 9.60004C8.20039 9.50004 8.30039 9.30004 8.30039 9.20004C8.40039 9.10004 8.40039 8.90004 8.30039 8.80004C8.20039 8.70004 7.70039 7.50004 7.50039 7.00004C7.40039 6.30004 7.20039 6.30004 7.00039 6.30004C6.90039 6.30004 6.70039 6.30004 6.50039 6.30004C6.30039 6.30004 6.00039 6.50004 5.90039 6.60004C5.30039 7.20004 5.00039 7.90004 5.00039 8.70004C5.10039 9.60004 5.40039 10.5 6.00039 11.3C7.10039 12.9 8.50039 14.2 10.2004 15C10.7004 15.2 11.1004 15.4 11.6004 15.5C12.1004 15.7 12.6004 15.7 13.2004 15.6C13.9004 15.5 14.5004 15 14.9004 14.4C15.1004 14 15.1004 13.6 15.0004 13.2C15.0004 13.2 14.8004 13.1 14.6004 13ZM17.1004 3.90004C13.2004 3.67165e-05 6.90039 3.67165e-05 3.00039 3.90004C-0.199611 7.10004 -0.799611 12 1.40039 15.9L0.000389099 21L5.30039 19.6C6.80039 20.4 8.40039 20.8 10.0004 20.8C15.5004 20.8 19.9004 16.4 19.9004 10.9C20.0004 8.30004 18.9004 5.80004 17.1004 3.90004ZM14.4004 17.9C13.1004 18.7 11.6004 19.2 10.0004 19.2C8.50039 19.2 7.10039 18.8 5.80039 18.1L5.50039 17.9L2.40039 18.7L3.20039 15.7L3.00039 15.4C0.600389 11.4 1.80039 6.40004 5.70039 3.90004C9.60039 1.40004 14.6004 2.70004 17.0004 6.50004C19.4004 10.4 18.3004 15.5 14.4004 17.9Z" fill="white"/>
</svg>
